<?xml version="1.0" standalone="no"?>
<!DOCTYPE svg PUBLIC "-//W3C//DTD SVG 20010904//EN"
 "http://www.w3.org/TR/2001/REC-SVG-20010904/DTD/svg10.dtd">
<svg version="1.0" xmlns="http://www.w3.org/2000/svg"
 width="1024.000000pt" height="1024.000000pt" viewBox="0 0 1024.000000 1024.000000"
 preserveAspectRatio="xMidYMid meet">
<metadata>
Created by potrace 1.16, written by Peter Selinger 2001-2019
</metadata>
<g transform="translate(0.000000,1024.000000) scale(0.100000,-0.100000)"
fill="#000000" stroke="none">
<path d="M0 5120 l0 -5120 5120 0 5120 0 0 5120 0 5120 -5120 0 -5120 0 0
-5120z m5500 3800 c793 -80 1525 -423 2070 -970 251 -253 461 -559 613 -896
129 -285 195 -524 236 -849 49 -392 26 -797 -64 -1150 -99 -384 -207 -640
-432 -1012 -23 -40 -43 -77 -43 -82 0 -5 12 -32 26 -60 44 -83 14 -151 -72
-167 -46 -8 -51 -20 -23 -57 112 -149 196 -300 238 -425 72 -212 86 -509 36
-724 -93 -399 -388 -751 -693 -829 -123 -31 -131 -19 -22 32 228 109 368 234
491 436 180 297 232 637 149 975 -47 192 -179 419 -341 588 -27 28 -49 52 -49
53 0 1 39 2 88 2 143 0 186 32 139 103 -35 54 -242 259 -317 316 -36 26 -96
64 -133 83 -99 49 -301 102 -420 110 -66 4 -95 9 -88 16 7 7 38 6 93 -1 119
-17 111 -21 103 45 -24 194 -169 534 -424 997 -160 291 -174 311 -272 407
l-77 77 45 6 c86 12 184 91 224 180 10 23 21 44 24 47 3 3 36 0 73 -7 73 -14
141 -18 167 -8 8 4 23 20 31 37 15 28 15 32 -4 56 -22 29 -78 49 -137 49 -39
0 -38 0 15 -12 55 -12 106 -34 97 -42 -2 -2 -42 5 -88 16 -46 11 -94 20 -106
20 -36 0 -27 20 10 21 l32 2 -35 6 c-32 5 -35 10 -42 50 -19 113 -68 218 -127
276 -23 21 -41 43 -41 47 0 4 15 15 33 24 23 13 59 18 127 18 82 1 99 4 127
24 50 36 95 137 101 227 6 90 -1 120 -35 151 -31 29 -101 32 -180 9 -107 -32
-208 -167 -201 -271 3 -42 6 -49 26 -52 34 -5 26 -24 -26 -59 -55 -37 -64 -40
-199 -53 -60 -6 -139 -22 -193 -39 -90 -29 -90 -29 -101 -9 -19 35 -92 109
-131 134 -38 24 -61 60 -110 172 -15 34 -41 79 -58 100 -18 20 -55 82 -84 137
-29 55 -65 122 -79 149 -27 49 -35 86 -18 86 5 0 23 22 40 50 17 27 44 56 60
65 22 11 33 26 41 58 13 49 66 174 85 200 11 15 19 16 56 8 75 -18 126 -14
150 12 31 32 49 80 49 130 0 24 4 47 9 53 5 5 14 25 19 44 6 24 8 -9 4 -107
-4 -121 -3 -143 10 -143 8 0 59 56 114 124 54 68 101 123 103 121 2 -2 -22
-65 -54 -140 -31 -75 -54 -143 -52 -149 3 -7 24 -18 47 -24 49 -12 35 -34 135
222 88 225 87 217 31 240 -26 10 -52 16 -59 13 -22 -8 -121 -127 -166 -199
-24 -38 -45 -68 -48 -68 -3 0 -2 12 2 27 3 15 15 91 25 168 20 156 21 155 -46
155 l-41 0 -21 -67 c-54 -175 -55 -180 -36 -208 l17 -27 -37 25 c-20 14 -63
36 -95 48 l-59 23 -5 65 c-14 193 -158 372 -348 435 -101 33 -254 36 -348 7
-129 -40 -227 -130 -295 -271 l-41 -85 0 -125 c0 -116 2 -130 29 -194 l30 -70
-20 -55 c-14 -40 -28 -60 -47 -69 -14 -7 -93 -22 -173 -32 -81 -11 -163 -25
-183 -31 -127 -41 -257 -116 -322 -186 -46 -50 -114 -163 -133 -222 -9 -25
-20 -76 -26 -112 -12 -81 -27 -123 -74 -217 -49 -98 -88 -199 -121 -312 -35
-123 -89 -231 -145 -291 -115 -123 -139 -164 -120 -209 9 -21 7 -52 -5 -131
-35 -228 -40 -279 -28 -299 7 -10 10 -34 6 -54 -4 -23 2 -66 17 -119 43 -159
62 -208 101 -259 21 -29 39 -56 39 -61 0 -5 -17 -6 -37 -3 -220 35 -441 44
-537 22 -67 -16 -101 -38 -134 -87 -22 -31 -23 -42 -20 -134 3 -78 9 -109 26
-142 12 -23 22 -47 22 -53 0 -6 -71 -10 -210 -10 -228 0 -275 -9 -300 -55 -28
-53 16 -148 88 -188 l42 -23 -62 -75 -63 -74 -3 50 c-2 33 -16 77 -42 132
-106 220 -207 606 -245 933 -20 175 -20 514 0 685 46 392 165 743 370 1090
311 525 673 848 1276 1139 449 217 844 311 1360 323 255 6 371 -2 621 -43 677
-110 1239 -389 1721 -853 373 -360 681 -920 777 -1417 62 -322 70 -725 20
-1041 -70 -442 -217 -842 -427 -1166 -34 -54 -63 -101 -63 -105 0 -17 69 -74
83 -69 26 10 178 250 244 387 166 341 276 711 315 1060 16 145 16 553 -1 685
-69 553 -286 1056 -660 1530 -80 101 -319 337 -441 434 -214 171 -508 351
-735 449 -290 125 -614 210 -990 258 -183 24 -589 24 -785 1 -512 -62 -940
-210 -1398 -484 -135 -81 -133 -80 -287 -193 -123 -92 -394 -359 -504 -499
-429 -542 -641 -1162 -641 -1871 0 -405 89 -864 233 -1200 46 -108 102 -216
126 -243 15 -17 14 -20 -4 -33 -10 -8 -29 -14 -41 -14 -22 0 -134 -93 -134
-111 0 -17 20 -9 71 27 33 23 55 32 61 26 6 -6 -2 -17 -22 -32 -26 -18 -29
-24 -18 -37 11 -14 9 -15 -20 -8 -21 4 -38 2 -47 -5 -12 -10 -18 -10 -30 0
-23 19 -31 3 -10 -20 11 -12 31 -20 50 -20 36 0 49 -8 36 -24 -14 -17 -130
-252 -166 -337 -18 -41 -39 -101 -46 -133 -12 -53 -11 -58 8 -78 15 -14 42
-23 99 -30 114 -14 237 -38 252 -50 9 -8 -8 -21 -69 -53 -150 -77 -193 -131
-192 -241 1 -109 54 -168 191 -210 45 -14 82 -29 82 -35 0 -5 -4 -9 -10 -9
-18 0 -10 -47 26 -152 94 -270 266 -500 458 -612 36 -21 65 -41 63 -43 -2 -2
-28 2 -58 8 -189 39 -382 264 -509 594 -72 186 -71 185 -152 224 -112 56 -165
141 -156 255 8 95 57 176 134 226 53 33 44 40 -52 40 -111 0 -184 48 -184 120
0 60 45 188 125 357 62 131 62 129 47 166 -28 67 -3 129 80 198 l32 27 -53
117 c-128 281 -203 529 -257 849 -36 206 -45 642 -19 866 41 364 133 686 280
985 252 512 621 930 1096 1237 185 120 446 253 672 342 285 113 658 192 1017
216 148 10 462 5 610 -10z m-175 -385 c170 -45 305 -181 334 -340 11 -61 6
-72 -8 -19 -57 202 -277 353 -477 328 -30 -3 -86 -21 -125 -40 -68 -33 -172
-119 -191 -159 -5 -11 -16 -32 -24 -48 -23 -41 -30 -97 -13 -97 8 0 71 -29
141 -65 141 -71 245 -105 326 -105 36 0 51 -4 46 -11 -4 -7 -23 -9 -53 -5 -33
5 -42 4 -31 -3 13 -9 12 -11 -3 -11 -36 0 -174 53 -290 111 -124 63 -160 70
-165 32 -2 -12 -10 -27 -18 -33 -33 -29 -5 159 37 242 25 50 99 130 155 169
94 65 235 86 359 54z m-107 -676 c2 -13 9 -31 16 -39 7 -8 16 -23 19 -32 9
-24 105 -98 129 -98 33 0 17 -33 -22 -45 -42 -12 -46 -45 -5 -37 23 4 25 1 25
-32 l0 -36 -47 6 -48 6 33 -31 c38 -36 39 -47 10 -78 l-21 -23 31 0 c17 0 34
5 37 10 8 13 25 3 25 -16 0 -27 -38 -54 -77 -54 -94 0 -253 135 -283 239 l-9
31 32 -22 31 -22 -17 24 c-21 31 -22 48 -1 46 11 0 21 13 30 36 7 21 24 53 38
71 15 19 26 40 26 47 0 26 24 80 35 77 5 -2 12 -14 13 -28z m-409 -231 c7 -73
15 -142 17 -153 5 -19 5 -19 -7 -1 -24 39 -59 141 -59 173 l0 33 -40 -20 c-21
-11 -51 -20 -65 -20 -14 0 -25 -5 -25 -11 0 -6 -7 -8 -17 -5 -20 8 -85 -12
-78 -25 4 -5 0 -6 -7 -4 -22 9 -226 -53 -286 -87 -152 -83 -277 -243 -303
-386 -23 -121 -51 -125 -32 -4 18 118 28 146 79 224 111 167 283 263 529 293
69 8 227 46 242 57 6 5 15 23 18 39 12 55 21 29 34 -103z m73 22 c31 0 62 -37
56 -67 -2 -10 6 -45 17 -79 22 -64 22 -84 0 -84 -7 0 -15 -5 -17 -11 -6 -19
-55 29 -77 75 -25 54 -42 199 -20 179 7 -7 25 -13 41 -13z m569 -368 c64 -101
149 -273 149 -300 0 -54 -16 -53 -35 1 -10 28 -22 57 -26 62 -4 6 -28 51 -53
100 -24 50 -56 107 -71 129 -24 35 -28 66 -8 66 4 0 24 -26 44 -58z m-561
-137 c33 -17 60 -58 89 -135 12 -30 21 -57 21 -59 0 -2 -23 17 -50 43 -99 92
-196 110 -252 46 -24 -26 -28 -39 -28 -88 0 -31 7 -69 14 -84 8 -16 11 -28 6
-28 -22 0 -44 67 -45 132 0 60 3 70 29 97 16 16 52 41 80 54 87 42 95 43 136
22z m1874 -56 c14 -11 26 -27 26 -35 0 -17 -17 -19 -23 -1 -6 20 -87 12 -137
-13 -82 -42 -155 -134 -143 -180 4 -16 3 -21 -5 -16 -46 28 40 190 123 233 71
37 122 41 159 12z m-1905 -58 c20 -11 43 -26 50 -35 11 -13 6 -13 -43 1 -36
10 -70 13 -101 9 -66 -10 -45 -26 35 -26 109 0 175 -36 235 -126 39 -59 268
-299 376 -395 71 -63 109 -78 130 -53 26 31 79 13 79 -27 0 -28 -2 -29 -37
-25 -66 8 -97 18 -116 37 -10 11 -23 19 -28 19 -6 0 -108 96 -227 213 -120
117 -232 220 -249 228 -18 7 -33 17 -33 21 0 4 -29 23 -63 43 -50 27 -75 35
-115 35 -31 0 -52 -5 -55 -12 -3 -7 -6 2 -6 20 -1 18 4 42 10 53 22 41 97 51
158 20z m1933 -16 c8 -8 -17 -116 -34 -150 -9 -17 -33 -50 -55 -73 -30 -34
-47 -45 -80 -49 -39 -5 -41 -4 -40 21 2 28 13 34 71 40 38 4 69 42 61 73 -4
16 -1 23 8 23 8 0 22 9 32 21 19 20 19 20 -9 10 -33 -13 -36 -13 -36 -2 0 10
62 90 71 90 3 1 8 -1 11 -4z m-2912 -80 c0 -32 -4 -43 -13 -39 -30 11 -98
-156 -122 -302 -9 -54 -25 -119 -36 -143 -11 -24 -17 -46 -14 -49 3 -3 -7 -18
-22 -34 -15 -15 -21 -28 -14 -28 7 0 9 -4 6 -10 -3 -5 0 -10 7 -10 7 0 2 -7
-11 -16 -16 -12 -19 -19 -11 -24 7 -4 1 -9 -17 -13 -58 -12 -136 -87 -90 -87
8 0 25 -9 38 -20 l24 -19 -82 -1 c-53 0 -83 4 -83 11 0 6 19 33 42 60 29 35
56 54 90 67 47 16 57 29 38 48 -6 6 5 38 30 89 22 44 56 136 76 205 39 139
137 360 159 360 3 0 5 -20 5 -45z m677 -225 c15 -6 60 -44 98 -83 83 -86 142
-128 216 -155 30 -11 88 -32 129 -47 73 -26 105 -49 94 -66 -3 -5 -81 -9 -174
-9 -102 0 -171 -4 -175 -10 -3 -5 -38 -10 -76 -10 -64 0 -75 3 -125 36 -65 43
-166 153 -195 212 -21 43 -21 44 -2 70 41 58 142 87 210 62z m1681 -63 c-16
-6 -28 -14 -28 -19 0 -4 -8 -8 -17 -8 -28 0 -273 -118 -273 -132 0 -4 -3 -7
-7 -6 -5 1 -44 -15 -87 -35 -43 -20 -82 -37 -86 -37 -15 0 -70 -71 -70 -90 0
-10 -4 -21 -9 -24 -5 -4 -5 10 0 32 5 20 6 45 3 54 -4 13 12 26 68 54 40 20
105 57 143 82 141 90 265 140 355 140 l35 0 -27 -11z m180 -11 c15 -8 35 -23
45 -34 18 -19 18 -19 -37 -4 -79 22 -119 8 -196 -69 -116 -117 -156 -255 -110
-384 25 -72 55 -118 91 -139 48 -28 53 -17 11 24 -23 21 -53 62 -67 90 -29 57
-45 172 -26 184 6 4 11 15 11 25 0 62 114 212 188 247 75 35 167 -13 213 -111
34 -71 47 -125 30 -125 -6 0 -11 5 -11 11 0 21 -89 147 -119 169 -39 27 -93
34 -118 14 -16 -14 -14 -14 22 -9 34 5 48 1 80 -21 22 -14 41 -30 43 -35 2 -5
26 -44 54 -86 49 -74 50 -79 45 -133 -9 -107 -73 -207 -161 -252 -83 -44 -216
-19 -264 49 -107 152 -81 355 64 512 80 87 146 111 212 77z m-1303 -491 c22
-1 76 -15 119 -30 79 -26 80 -27 134 -10 29 10 76 18 104 19 l51 1 50 -68 c48
-66 49 -69 32 -87 -10 -11 -50 -37 -89 -59 -79 -44 -139 -98 -167 -152 -27
-54 -41 -159 -33 -255 4 -46 3 -84 -1 -84 -4 0 -21 12 -38 26 -37 31 -156 92
-387 196 -96 44 -181 85 -189 93 -12 12 -7 21 31 64 32 35 54 75 78 138 41
110 72 173 96 195 22 19 73 28 129 21 22 -3 58 -6 80 -8z m855 -215 c0 -5 -3
-10 -7 -10 -90 -2 -208 -25 -280 -54 -123 -51 -168 -80 -215 -143 l-43 -56 0
-121 c1 -138 10 -177 140 -636 97 -340 119 -445 111 -531 -25 -284 -334 -1056
-555 -1386 -134 -201 -233 -280 -382 -304 -83 -14 -349 -3 -539 22 -910 119
-949 125 -957 146 -3 7 -3 16 -1 19 5 5 339 -35 553 -66 348 -51 543 -72 722
-77 211 -7 291 3 358 42 62 36 145 131 253 290 112 166 352 714 456 1043 64
203 67 269 25 466 -23 104 -25 113 -115 406 -106 349 -116 391 -121 531 -12
273 54 336 442 422 40 9 155 7 155 -3z m392 -139 c64 -58 79 -81 221 -335 225
-405 374 -729 420 -913 16 -64 18 -86 9 -95 -18 -18 -28 -2 -52 87 -30 113
-160 404 -254 568 -13 23 -48 89 -78 147 -210 399 -282 518 -350 575 -18 15
-37 34 -41 42 -16 26 65 -23 125 -76z m-136 0 c24 -22 35 -50 58 -146 25 -108
339 -737 417 -834 50 -64 59 -83 70 -149 12 -74 23 -192 17 -192 -12 0 -97 45
-125 66 -46 35 -91 105 -99 152 -5 35 -3 44 20 67 18 18 34 25 47 22 26 -7 24
0 -16 60 -42 63 -221 420 -295 590 l-54 122 -50 12 c-28 6 -63 18 -78 26 -70
35 -79 156 -15 200 40 27 77 29 103 4z m-738 -169 c1 -53 12 -146 23 -207 11
-60 24 -130 28 -155 5 -25 14 -60 21 -78 7 -18 10 -41 7 -52 -3 -11 -1 -18 4
-14 5 3 9 -2 9 -10 0 -8 5 -27 11 -43 l11 -28 9 24 c8 21 13 22 47 16 55 -9
132 -64 236 -168 121 -121 241 -296 253 -371 5 -30 1 -35 -30 -55 -42 -26
-128 -30 -226 -10 -74 14 -81 23 -121 144 -72 225 -157 445 -160 414 0 -3 23
-78 51 -165 28 -87 62 -195 75 -239 28 -92 55 -165 61 -165 2 0 39 -7 81 -16
52 -11 104 -15 160 -11 46 3 80 1 75 -3 -19 -17 -80 -30 -137 -29 -45 1 -53 3
-31 8 23 5 9 9 -62 18 -50 6 -101 16 -112 22 -14 8 -32 47 -60 134 -41 126
-147 469 -161 522 -5 17 -20 71 -34 120 -63 223 -84 434 -46 479 7 9 13 16 14
16 0 0 2 -44 4 -98z m-1253 -19 c17 -14 59 -54 95 -87 36 -34 103 -95 150
-136 46 -41 113 -101 150 -134 103 -92 171 -181 186 -241 5 -24 -4 -15 -48 43
-30 40 -70 85 -88 100 -18 15 -50 43 -70 62 -118 112 -170 160 -174 160 -2 0
-23 17 -45 38 -23 20 -53 47 -69 60 -58 50 -152 144 -152 153 0 18 36 8 65
-18z m-910 -457 c115 -20 206 -45 233 -63 13 -8 22 -16 20 -18 -2 -2 -69 10
-148 26 -171 35 -408 50 -459 29 -75 -31 -122 -128 -102 -210 21 -89 21 -94
-4 -45 -18 36 -25 66 -25 108 0 98 38 155 121 183 53 17 242 12 364 -10z
m1563 -304 c9 -6 2 -31 -29 -103 -81 -184 -127 -306 -174 -454 -203 -649 -205
-656 -199 -697 5 -28 2 -40 -15 -57 -22 -22 -51 -28 -51 -11 0 6 -11 16 -25
22 -34 15 -32 23 15 49 44 25 43 23 89 199 61 235 134 481 206 695 100 299
114 335 131 335 8 0 17 7 20 15 7 17 13 18 32 7z m653 -222 c27 -106 33 -143
33 -240 0 -105 -3 -125 -36 -225 -109 -341 -326 -875 -355 -875 -19 0 -93 46
-93 59 0 7 -16 35 -36 62 -38 52 -39 79 -4 79 13 0 20 7 20 20 0 29 -27 91
-51 116 l-20 22 25 25 c26 26 77 124 171 327 32 69 78 168 102 220 88 186 178
419 198 508 4 18 8 32 10 30 2 -2 18 -59 36 -128z m-2658 94 c80 -6 99 -17 47
-28 -53 -10 -202 -78 -283 -129 -44 -26 -82 -46 -85 -43 -10 11 52 67 126 113
39 25 72 49 72 54 0 5 -23 9 -51 9 -31 0 -48 -4 -44 -10 4 -6 -14 -10 -48 -10
-30 0 -76 -3 -102 -7 -38 -5 -47 -3 -43 8 3 10 30 16 94 20 l89 5 -91 2 c-79
2 -95 -1 -118 -19 -14 -11 -26 -24 -26 -29 0 -5 15 -23 33 -39 42 -40 22 -40
-26 0 -55 45 -45 92 23 109 35 9 281 5 433 -6z m1290 -131 c-65 -182 -102
-317 -128 -468 -14 -82 -32 -173 -40 -201 -24 -82 -88 -207 -132 -258 -35 -40
-45 -67 -39 -98 4 -21 2 -28 -7 -26 -6 3 -13 13 -15 24 -3 20 11 50 97 201 56
101 69 146 116 418 26 150 69 310 107 395 18 41 64 110 73 110 2 0 -13 -44
-32 -97z m-1032 22 c100 -17 200 -50 289 -95 66 -33 144 -90 135 -98 -2 -3
-10 0 -17 5 -30 23 -155 86 -226 114 -157 60 -280 70 -432 33 -246 -59 -346
-118 -531 -312 -104 -108 -103 -96 3 35 83 102 157 164 258 217 207 107 339
133 521 101z m180 -150 c63 -25 152 -92 143 -106 -3 -5 -1 -9 3 -9 13 0 76
-90 102 -145 13 -27 25 -68 28 -90 l4 -40 -16 34 c-20 44 -25 37 -15 -19 9
-47 3 -100 -10 -100 -5 0 -16 21 -26 48 -63 169 -207 277 -421 318 -104 19
-282 15 -378 -10 -209 -55 -351 -157 -471 -338 -63 -96 -203 -355 -211 -390
-4 -21 -11 -28 -29 -28 -17 0 -24 6 -24 20 0 59 131 329 212 436 110 147 283
324 315 324 5 0 20 11 33 25 13 14 33 25 44 25 12 0 30 7 40 15 11 8 32 15 48
15 15 0 70 7 120 16 67 12 130 15 228 12 74 -3 127 -3 118 -1 -10 3 -18 9 -18
15 0 16 116 0 181 -27z m3848 -144 c185 -47 297 -108 423 -229 92 -89 198
-212 198 -230 0 -15 -29 -23 -49 -12 -10 5 -35 31 -57 57 -64 80 -146 162
-209 213 -154 122 -360 181 -624 179 l-146 -2 155 -12 c85 -7 182 -20 216 -29
163 -42 302 -114 377 -195 44 -46 96 -135 86 -145 -2 -2 -45 -1 -96 3 l-91 8
-49 50 c-116 120 -194 169 -343 215 -63 19 -97 23 -215 23 -163 0 -234 -17
-350 -86 -64 -37 -68 -38 -45 -13 51 58 184 149 201 138 8 -4 9 -3 5 4 -9 15
87 59 169 78 90 20 335 12 444 -15z m-4394 -291 c261 -14 603 -49 645 -68 48
-21 -372 -16 -685 8 -184 14 -275 41 -203 62 33 9 34 9 243 -2z m-300 -259
c77 -11 177 -23 223 -27 45 -4 85 -10 87 -15 25 -40 -508 0 -549 41 -13 13 32
30 69 25 17 -3 93 -13 170 -24z m4660 -156 c208 -55 405 -285 472 -552 26
-104 24 -352 -5 -455 -62 -227 -199 -406 -383 -503 -230 -121 -468 -108 -684
36 -185 124 -309 371 -321 639 -3 82 -1 131 9 170 l15 55 2 -40 c1 -36 4 -31
22 43 12 45 23 81 24 79 2 -2 -1 -44 -7 -95 -26 -235 50 -494 195 -665 133
-155 286 -223 486 -215 165 7 266 51 382 164 109 107 175 226 219 395 30 117
23 296 -16 414 -80 242 -241 417 -442 481 -69 22 -238 30 -304 14 -61 -15
-148 -57 -199 -97 l-34 -28 24 34 c89 127 330 182 545 126z m-748 -37 c5 -7
17 -33 26 -58 9 -25 53 -144 97 -265 96 -258 123 -342 117 -359 -7 -17 -179
-106 -205 -106 -24 0 -33 35 -25 103 9 75 29 53 25 -28 l-4 -67 32 18 c65 39
65 35 -1 199 -97 238 -162 422 -174 486 -5 29 -2 41 17 62 25 29 78 37 95 15z
m896 -187 c50 -46 137 -155 137 -172 0 -14 -28 -11 -33 4 -3 9 -7 9 -20 -2
-19 -15 -22 -14 -100 52 -25 21 -59 42 -75 47 -28 8 -33 5 -57 -32 l-26 -40
50 -75 c28 -41 51 -79 51 -84 0 -19 32 -8 88 30 93 63 142 84 142 61 0 -5 -22
-21 -49 -34 -27 -14 -69 -38 -92 -54 -70 -47 -85 -48 -105 -10 -23 45 -106
158 -116 158 -4 0 -8 7 -8 15 0 8 4 15 8 15 9 0 45 71 78 152 l18 46 30 -15
c16 -8 52 -36 79 -62z m-5013 -49 c0 -4 -5 -13 -11 -19 -13 -13 0 -18 93 -33
37 -6 102 -26 144 -45 100 -45 130 -45 39 1 -39 19 -57 32 -41 29 16 -3 97
-17 180 -31 83 -13 177 -28 209 -34 112 -18 195 -89 181 -155 -16 -79 -116
-185 -175 -185 -31 0 -51 19 -22 21 10 1 -22 5 -72 10 -67 6 -154 27 -345 84
-295 89 -343 109 -348 145 -3 19 -1 22 10 13 7 -6 65 -29 128 -52 63 -22 149
-54 190 -71 96 -40 299 -90 367 -90 68 0 69 16 2 18 -29 0 -57 6 -63 12 -8 8
5 9 45 4 35 -4 64 -2 77 5 18 10 22 9 22 -4 0 -8 6 -15 13 -15 16 0 45 19 32
21 -24 3 -32 6 -78 27 -26 12 -92 30 -145 41 -114 23 -486 115 -554 137 -54
18 -59 31 -27 83 29 47 43 60 86 76 44 16 63 18 63 7z m4685 -91 c71 -35 115
-86 163 -187 25 -55 27 -68 27 -189 l0 -130 -39 -78 c-111 -222 -315 -277
-493 -131 -102 83 -155 225 -84 224 9 -1 28 -19 44 -41 51 -75 156 -113 234
-85 43 15 93 53 93 69 0 6 -10 2 -22 -9 -15 -13 -11 -3 12 31 31 45 34 57 34
120 0 47 -6 83 -18 110 -11 22 -20 46 -22 53 -8 40 -91 75 -168 70 l-60 -3
-20 69 -20 69 30 24 c75 61 201 67 309 14z m524 -158 c22 -56 31 -120 31 -225
0 -58 -3 -113 -6 -122 -8 -20 -44 -20 -104 -2 -39 12 -97 35 -109 42 -6 5 -30
129 -31 161 0 22 6 36 19 42 18 10 19 5 23 -85 4 -106 15 -124 70 -124 33 0
33 3 16 111 -11 67 -15 78 -40 92 -25 14 -27 20 -18 37 12 22 109 99 126 99 6
1 17 -11 23 -26z m-2419 -23 c-15 -28 -50 -31 -245 -21 -220 12 -294 21 -302
34 -4 7 57 8 188 4 107 -3 230 -2 274 2 44 4 83 5 88 3 4 -2 3 -12 -3 -22z
m-1170 -190 c321 -59 359 -62 803 -64 70 -1 127 -4 127 -8 0 -31 -515 -21
-785 16 -289 40 -415 63 -415 76 0 23 53 19 270 -20z m1060 33 c0 -1 -15 -17
-34 -37 -21 -21 -47 -37 -68 -40 -75 -12 -245 -17 -268 -8 -24 9 -24 10 15 20
22 6 92 14 155 18 73 5 104 10 85 14 -16 3 -52 4 -80 2 -51 -3 -168 16 -161
27 3 5 356 9 356 4z m-2018 -397 c40 -20 96 -39 125 -43 55 -6 161 10 203 32
14 7 36 16 50 20 l25 7 -28 -29 c-45 -49 -128 -85 -205 -91 -130 -9 -256 42
-357 146 -53 55 -77 94 -33 56 24 -21 22 -16 -28 59 -59 89 -38 83 70 -21 78
-75 123 -109 178 -136z m2903 209 l80 -1 17 -93 c56 -301 212 -571 428 -742
102 -80 211 -140 334 -183 43 -15 4 -15 -75 0 -156 29 -259 87 -401 223 -181
172 -271 343 -358 680 l-11 43 -61 -6 c-34 -4 -125 -23 -202 -41 -232 -56
-352 -68 -691 -69 -165 -1 -373 3 -462 8 l-163 9 0 -36 c0 -66 88 -272 162
-381 30 -44 28 -56 -8 -56 -38 0 -69 42 -144 195 -99 203 -112 264 -64 312
l26 26 151 -7 c563 -23 756 -18 980 24 115 22 246 61 302 89 24 13 48 18 60
14 11 -4 56 -7 100 -8z m-2988 -38 c7 -5 9 0 6 12 -4 17 1 16 51 -10 77 -38
132 -45 208 -26 35 9 64 14 66 12 3 -2 -10 -18 -27 -36 -30 -29 -35 -31 -82
-25 -27 4 -57 9 -67 12 -9 2 -3 -2 13 -10 42 -21 206 -21 245 -1 26 13 29 13
24 1 -3 -8 -27 -25 -52 -38 -38 -19 -63 -23 -132 -22 -77 0 -91 3 -150 35 -61
33 -150 106 -150 124 0 4 8 1 18 -7 9 -8 22 -18 29 -21z m1039 -49 c-20 -32
-46 -137 -35 -144 5 -3 25 0 46 5 20 6 47 8 60 5 17 -5 23 -2 23 10 0 9 5 16
11 16 7 0 9 -10 7 -25 -4 -20 -1 -26 19 -31 38 -10 85 -78 167 -241 95 -190
99 -198 82 -212 -17 -14 -20 -10 -91 114 -32 55 -66 116 -77 135 -26 44 -78
121 -94 138 -8 7 -40 12 -86 12 l-73 0 -63 -70 c-67 -75 -162 -147 -241 -185
-49 -24 -162 -57 -169 -50 -2 2 29 20 69 41 120 60 195 112 254 175 59 65 75
91 124 210 28 66 61 119 77 119 2 0 -2 -10 -10 -22z m3578 -36 c6 -11 -33
-100 -76 -169 -43 -69 -159 -183 -218 -213 -54 -27 -153 -50 -222 -50 -183 0
-376 108 -448 253 -26 52 -28 62 -15 70 10 5 13 16 9 33 -8 30 3 31 27 3 11
-12 23 -18 30 -13 9 5 10 2 6 -9 -4 -11 -1 -17 9 -17 9 0 42 -16 74 -34 33
-19 75 -38 95 -42 19 -3 35 -9 35 -13 0 -14 -65 -91 -76 -91 -7 0 -24 4 -38
10 -46 17 -30 -15 27 -54 79 -54 93 -52 145 22 52 74 71 88 135 97 39 6 47 5
47 -9 0 -8 -12 -19 -26 -22 -18 -5 -23 -11 -19 -23 4 -9 11 -29 17 -46 5 -16
14 -38 19 -48 15 -28 5 -32 -76 -32 -40 0 -68 -3 -62 -7 21 -13 162 -8 215 7
39 12 52 21 52 35 0 20 -60 103 -94 131 -24 20 -22 25 16 34 23 6 33 1 59 -27
17 -18 42 -49 55 -70 30 -47 36 -50 62 -32 22 15 30 58 13 68 -5 3 -21 35 -36
70 l-27 64 46 61 c44 56 49 60 94 64 92 7 141 7 146 -1z"/>
<path d="M4383 8360 c-21 -9 -27 -24 -39 -112 -3 -27 -9 -48 -13 -48 -4 0 -27
20 -51 45 -37 37 -50 45 -81 45 -21 0 -41 -4 -44 -10 -3 -5 32 -49 78 -98 74
-79 88 -99 127 -193 53 -127 57 -131 92 -116 l27 12 -25 70 c-25 68 -26 76
-20 243 5 187 6 185 -51 162z"/>
<path d="M3960 8201 c-44 -14 -130 -61 -130 -72 0 -10 159 -345 185 -389 14
-25 49 -30 69 -10 9 9 7 15 -38 132 -25 66 -25 68 -6 78 16 9 26 1 75 -60 70
-88 82 -95 124 -69 38 23 36 28 -44 116 l-56 62 7 59 c13 121 -69 189 -186
153z"/>
<path d="M3631 8037 c-52 -28 -99 -59 -104 -68 -8 -12 3 -39 43 -110 86 -151
180 -308 188 -313 14 -9 207 114 210 134 4 25 -15 60 -33 60 -8 0 -37 -13 -65
-30 -70 -41 -84 -39 -105 16 l-18 46 29 24 c16 13 32 23 35 24 14 0 18 31 8
60 -6 16 -13 30 -15 30 -3 0 -26 -11 -52 -24 -51 -26 -62 -24 -81 11 -20 39
-13 57 39 91 28 18 50 40 50 48 0 19 -18 54 -28 54 -4 0 -49 -24 -101 -53z"/>
<path d="M6517 8038 c-14 -13 -49 -50 -78 -83 -29 -33 -85 -95 -126 -137 -40
-43 -73 -86 -73 -96 0 -26 85 -70 108 -56 12 8 23 3 52 -25 37 -38 106 -69
120 -55 5 5 16 41 24 79 9 39 31 128 50 198 19 71 32 135 29 142 -5 13 -63 55
-76 55 -3 0 -17 -10 -30 -22z"/>
<path d="M3403 7900 c-18 -11 -33 -25 -33 -32 0 -20 44 -155 75 -231 15 -37
25 -70 22 -73 -2 -3 -45 36 -93 87 -49 50 -95 98 -102 105 -19 20 -33 17 -67
-11 l-30 -25 100 -97 c55 -53 133 -123 173 -155 72 -57 73 -58 103 -43 16 9
29 23 29 33 0 30 -28 134 -70 262 -22 69 -45 142 -51 163 -5 20 -13 37 -17 37
-4 0 -22 -9 -39 -20z"/>
<path d="M6767 7798 c-41 -51 -114 -132 -161 -180 -47 -47 -86 -90 -86 -95 0
-5 11 -20 24 -32 l25 -23 60 38 c33 22 66 50 75 64 8 14 27 39 40 55 l26 30
-26 -59 c-31 -67 -25 -109 14 -114 12 -2 22 -5 22 -7 0 -2 -11 -27 -25 -56
-21 -47 -23 -56 -11 -74 7 -11 24 -20 37 -20 19 0 32 16 69 80 25 44 78 130
118 190 40 60 75 120 79 133 7 28 -27 68 -51 59 -8 -3 -47 -53 -87 -111 -40
-58 -74 -104 -76 -102 -2 2 12 50 32 106 39 116 44 169 17 193 -10 10 -24 17
-30 17 -6 0 -44 -42 -85 -92z"/>
<path d="M3042 7587 c-12 -13 -22 -26 -22 -29 0 -11 351 -298 365 -298 7 0 27
11 42 25 l28 24 -45 39 c-101 87 -324 262 -335 262 -6 0 -21 -10 -33 -23z"/>
<path d="M7143 7545 c-63 -19 -124 -58 -170 -108 -122 -132 -109 -242 38 -322
l49 -26 48 37 c69 55 122 107 122 119 0 18 -50 65 -77 71 -31 8 -72 -5 -87
-28 -8 -13 -6 -22 12 -41 27 -29 28 -44 1 -52 -31 -10 -66 2 -72 26 -12 46 55
178 106 210 19 11 50 19 75 19 39 0 45 -4 74 -45 36 -50 43 -53 58 -26 36 68
-35 183 -112 180 -12 0 -42 -6 -65 -14z"/>
<path d="M2915 7462 c-36 -33 -114 -126 -138 -164 -16 -26 -16 -29 2 -47 10
-10 43 -36 72 -58 30 -22 98 -81 151 -132 95 -88 111 -99 134 -83 8 6 104 128
139 178 10 15 -2 45 -22 51 -5 2 -36 -24 -69 -57 l-58 -60 -43 42 c-41 40 -52
62 -35 70 11 5 82 95 82 105 0 5 -12 20 -26 34 l-26 24 -21 -25 c-12 -14 -36
-43 -54 -64 l-32 -39 -35 24 c-20 13 -36 32 -36 42 0 10 23 43 51 72 l51 54
-23 30 c-13 16 -26 30 -29 30 -3 0 -18 -12 -35 -27z"/>
<path d="M7364 7266 c-45 -29 -108 -75 -140 -102 -82 -70 -119 -94 -143 -94
-12 0 -21 -4 -21 -9 0 -15 178 -221 191 -221 4 0 17 8 30 19 l23 18 -48 63
c-26 35 -46 70 -44 78 2 8 23 28 47 46 l43 31 42 -47 41 -48 33 21 c17 12 32
25 32 30 0 5 -16 26 -35 48 -19 21 -35 43 -35 48 0 5 14 22 30 38 l30 29 48
-47 c51 -50 63 -55 81 -33 17 20 -3 56 -71 128 l-53 57 -81 -53z"/>
<path d="M2647 7085 c-15 -8 -40 -24 -55 -35 -30 -23 -102 -125 -102 -144 0
-6 48 -48 108 -93 59 -45 136 -109 171 -143 36 -33 70 -60 77 -60 19 0 98 98
128 157 61 122 7 221 -166 303 -69 33 -118 38 -161 15z m139 -105 c57 -32 124
-104 124 -132 0 -34 -32 -98 -49 -98 -9 0 -47 25 -86 56 -174 138 -178 144
-129 183 37 29 80 26 140 -9z"/>
<path d="M7636 7041 c-3 -4 -84 -61 -181 -125 -96 -64 -175 -120 -175 -125 0
-10 54 -61 66 -61 5 0 31 16 58 35 86 61 96 42 41 -78 -40 -87 -43 -107 -15
-132 29 -27 48 -12 83 65 30 65 35 71 72 80 98 25 116 32 150 64 31 30 35 39
35 85 0 58 -23 110 -71 166 -30 34 -53 44 -63 26z"/>
<path d="M7030 6240 l0 -30 208 -2 c260 -2 585 2 594 9 14 8 8 41 -8 47 -9 3
-191 6 -405 6 l-389 0 0 -30z"/>
<path d="M2400 6230 l0 -30 423 0 c440 0 447 1 447 42 0 17 -23 18 -435 18
l-435 0 0 -30z"/>
<path d="M2394 5906 c-3 -14 -3 -30 1 -35 7 -12 771 -16 813 -5 26 7 31 48 6
58 -9 3 -195 6 -415 6 l-399 0 -6 -24z"/>
<path d="M6707 5923 c-4 -3 -7 -17 -7 -30 l0 -23 573 2 572 3 0 25 0 25 -566
3 c-311 1 -569 -1 -572 -5z"/>
</g>
</svg>
